<svg width="21" height="21" viewBox="0 0 21 21" fill="none" xmlns="http://www.w3.org/2000/svg">
<path fill-rule="evenodd" clip-rule="evenodd" d="M12.4239 10.4999L20.6009 2.32271C21.1331 1.79082 21.1331 0.930816 20.6009 0.398921C20.069 -0.132974 19.209 -0.132974 18.6771 0.398921L10.4999 8.57615L2.3229 0.398921C1.79076 -0.132974 0.931004 -0.132974 0.399108 0.398921C-0.133036 0.930816 -0.133036 1.79082 0.399108 2.32271L8.5761 10.4999L0.399108 18.6772C-0.133036 19.2091 -0.133036 20.0691 0.399108 20.601C0.664184 20.8663 1.01272 20.9996 1.361 20.9996C1.70929 20.9996 2.05758 20.8663 2.3229 20.601L10.4999 12.4237L18.6771 20.601C18.9425 20.8663 19.2907 20.9996 19.639 20.9996C19.9873 20.9996 20.3356 20.8663 20.6009 20.601C21.1331 20.0691 21.1331 19.2091 20.6009 18.6772L12.4239 10.4999Z" fill="#2F281E"/>
</svg>
